<svg width="655" height="250" viewBox="0 0 655 250" fill="none" xmlns="http://www.w3.org/2000/svg">
<path d="M227.581 201.2L220.681 230H132.781V227C133.981 211.6 134.581 195.6 134.581 179V146.9C126.781 148.1 120.481 148.7 115.681 148.7C83.8809 148.7 60.1809 142 44.5809 128.6C29.1809 115.2 21.4809 95.3 21.4809 68.9C21.4809 64.7 21.6809 60.8 22.0809 57.2C22.4809 53.6 23.2809 49.4 24.4809 44.6C22.6809 44.6 20.2809 45 17.2809 45.8C14.2809 46.6 11.3809 47.5 8.58086 48.5C7.38086 48.7 6.18086 49 4.98086 49.4C3.78086 49.8 2.68086 50.2 1.68086 50.6L0.480859 48.8L6.78086 20H86.2809V22.7L85.9809 23.6C84.1809 32.2 82.7809 40.3 81.7809 47.9C80.9809 55.3 80.5809 63.1 80.5809 71.3C80.5809 85.9 83.7809 97.9 90.1809 107.3C96.7809 116.5 106.881 121.1 120.481 121.1C124.681 121.1 128.781 120.8 132.781 120.2C132.981 120 133.281 119.9 133.681 119.9C134.081 119.9 134.381 119.9 134.581 119.9V71C134.581 54.2 133.981 38.2 132.781 23V20H199.381V23C198.181 38.2 197.581 54.2 197.581 71V205.4C200.181 205.4 204.481 204.7 210.481 203.3C216.481 201.9 221.781 200.6 226.381 199.4L227.581 201.2ZM376.095 122.9C391.895 125.9 404.595 131.9 414.195 140.9C423.995 149.7 428.895 160.5 428.895 173.3C428.895 184.9 425.095 195.4 417.495 204.8C410.095 214 399.595 221.3 385.995 226.7C372.595 231.9 357.095 234.5 339.495 234.5C333.695 234.5 327.995 234.3 322.395 233.9C316.795 233.5 311.595 232.9 306.795 232.1C302.995 231.7 299.095 231.2 295.095 230.6C291.095 230 287.195 229.5 283.395 229.1L292.695 247.1L291.795 249.2H262.095L234.795 144.2L256.695 137L258.195 140C262.395 149.4 268.895 159.4 277.695 170C286.495 180.6 296.195 189.7 306.795 197.3C317.395 204.7 326.995 208.4 335.595 208.4C341.795 208.4 346.995 206.9 351.195 203.9C355.595 200.9 358.895 196.6 361.095 191C363.295 185.2 364.395 178.5 364.395 170.9C364.395 164.9 363.495 159.4 361.695 154.4C359.895 149.4 357.095 145.4 353.295 142.4C349.495 139.2 344.795 137.6 339.195 137.6H333.495V163.7H315.495L301.395 92H333.495V111.5H337.995C342.795 111.5 346.795 110 349.995 107C353.395 103.8 355.895 99.6 357.495 94.4C359.295 89.2 360.195 83.3 360.195 76.7C360.195 69.7 359.195 63.5 357.195 58.1C355.395 52.5 352.595 48.2 348.795 45.2C345.195 42 340.695 40.4 335.295 40.4C328.295 40.4 320.395 43.5 311.595 49.7C302.995 55.9 294.595 64 286.395 74C278.395 83.8 271.795 93.7 266.595 103.7L265.695 106.1L244.395 98.6L269.595 0.799983H300.495L301.395 2.89999L291.795 24.8C295.995 23.8 300.995 22.4 306.795 20.6C312.795 18.8 318.295 17.5 323.295 16.7C328.295 15.9 333.395 15.5 338.595 15.5C354.195 15.5 368.095 17.9 380.295 22.7C392.695 27.3 402.295 33.9 409.095 42.5C416.095 51.1 419.595 61 419.595 72.2C419.595 85 415.695 95.7 407.895 104.3C400.295 112.7 389.695 118.9 376.095 122.9ZM426.57 227C435.37 219 445.37 208.3 456.57 194.9C467.97 181.3 478.27 167.5 487.47 153.5C487.87 152.7 488.27 152 488.67 151.4C489.27 150.8 489.77 150.1 490.17 149.3L504.27 129.2L478.17 89.9L476.07 86.6C467.27 73.8 458.97 62.4 451.17 52.4C443.57 42.2 435.57 32.4 427.17 23V20H535.17L538.77 45.5L536.97 47.6C533.57 47 529.77 46.4 525.57 45.8C521.37 45 518.07 44.6 515.67 44.6L549.57 98.9L558.87 83.9C562.87 77.5 566.87 70.4 570.87 62.6C572.67 59.4 574.27 56.3 575.67 53.3C577.27 50.1 578.67 47.2 579.87 44.6C577.47 44.6 574.17 45 569.97 45.8C565.77 46.4 561.97 47 558.57 47.6L556.77 45.5L560.37 20H643.47V23C641.27 25.6 639.07 28.2 636.87 30.8C634.87 33.4 632.77 36 630.57 38.6C622.37 47.4 614.77 56 607.77 64.4C600.77 72.8 593.87 82.4 587.07 93.2L572.97 113L600.87 155.9C608.67 167.9 620.67 184.3 636.87 205.1C643.27 213.1 649.07 220.4 654.27 227V230H547.47L544.17 204.5L546.27 202.4C549.67 203 553.37 203.7 557.37 204.5C561.57 205.1 564.87 205.4 567.27 205.4L527.67 143.3L512.37 168.2C510.37 171.6 508.37 175.1 506.37 178.7C504.57 182.1 502.77 185.5 500.97 188.9C499.57 191.7 498.17 194.5 496.77 197.3C495.57 199.9 494.37 202.6 493.17 205.4C494.77 205.4 496.77 205.3 499.17 205.1C501.57 204.7 503.97 204.2 506.37 203.6C507.77 203.4 509.17 203.2 510.57 203C511.97 202.8 513.17 202.6 514.17 202.4L516.27 204.5L512.97 230H426.57V227Z" fill="url(#paint0_linear_103_35)"/>
<defs>
<linearGradient id="paint0_linear_103_35" x1="286.072" y1="2.99999" x2="280.834" y2="261.511" gradientUnits="userSpaceOnUse">
<stop stop-color="#926FAF"/>
<stop offset="1" stop-color="#363AAC"/>
</linearGradient>
</defs>
</svg>
