<svg viewBox="0 0 164 84" fill="none" xmlns="http://www.w3.org/2000/svg">
<path
        d="M153.806 26.2412C153.95 24.2263 153.806 23.7247 153.018 23.7247C152.588 23.7247 152.231 24.1564 151.656 25.8095L142.758 50.342C141.609 53.4343 140.317 54.8735 138.163 54.8036C135.939 54.7337 134.429 53.0765 133.929 49.6224L130.844 28.0423C130.557 26.2454 130.343 25.6697 129.769 25.6697C129.125 25.6697 128.981 26.1014 128.62 28.0423L125.03 48.7589L118.212 47.4636L125.892 9.40643C127.328 2.42826 128.907 0.269437 132.423 0.269437C135.439 0.269437 137.375 2.86001 137.949 8.46887L140.821 35.2302C140.891 35.518 141.035 35.5879 141.252 35.5879C141.469 35.5879 141.609 35.444 141.683 35.3001L149.937 12.7125C152.378 6.09623 154.889 3.43162 158.118 3.71946C161.851 4.07721 163 6.59791 163 14.0079V58.7553L151.373 60.9841L153.814 26.2371L153.806 26.2412ZM17.7223 38.1826C17.792 36.3857 18.2228 35.5221 18.7971 35.5221C19.4413 35.5221 19.8023 36.0238 20.2331 38.1128L25.1152 60.9882C26.908 69.5495 29.2793 73.2174 32.9389 73.2174C36.8158 73.2174 39.2569 69.6934 41.9113 60.3384L58.0592 3.93742C58.2725 3.07388 58.49 2.28435 58.49 1.70866C58.49 0.413359 57.7023 -0.306241 55.4745 0.125525L41.2631 2.71609L37.7471 52.6407C37.6035 54.4376 37.2466 55.3012 36.5984 55.3012C35.8804 55.3012 35.5235 54.5816 35.2363 52.7106L29.6363 13.0744C28.6311 6.09624 26.5511 2.71609 23.1049 2.71609C19.2279 2.71609 17.0043 5.73849 15.4248 13.4363L1 83L15.355 80.2655L17.7223 38.1826ZM58.8469 37.6069C58.8469 49.5484 63.368 56.0249 71.1917 56.0249C79.9466 56.0249 86.1211 47.5376 86.1211 26.4591C86.1211 21.4959 86.0513 15.813 85.7642 11.2816C83.8975 13.2224 80.9559 15.813 78.6584 17.3263C78.9456 19.9868 79.0892 24.3743 79.0892 29.6994C79.0892 39.0503 78.1579 49.4086 74.7117 49.4086C72.7014 49.4086 72.0573 44.7332 72.0573 38.6185C72.0573 30.9948 73.0624 21.9277 73.7066 19.3371C71.4829 20.0567 64.5905 21.2081 59.5689 21.4959C59.1382 25.7395 58.851 32.2859 58.851 37.611L58.8469 37.6069ZM102.486 49.3345C110.167 49.3345 114.4 42.1426 114.4 29.5514C114.4 24.876 114.257 21.9277 114.187 20.4144C112.895 19.7688 110.31 18.5434 107.799 16.8164C107.869 18.7573 108.086 23.005 108.086 28.9017C108.086 38.2526 106.868 43.5037 104.927 43.5037C102.847 43.5037 102.056 40.0495 102.056 29.2595C102.056 21.6357 102.413 14.7274 102.486 12.8565C98.3223 9.90811 92.7263 5.3026 91.434 3.86338C90.716 15.6609 90.5724 22.783 90.5724 29.2595C90.5724 41.3448 95.3109 49.3304 102.486 49.3304V49.3345Z"
        fill="#552BEF"
    />
</svg>
